HIERARCHY
ROOT Hips
{
    OFFSET 0.000000 0.000000 0.000000
    CHANNELS 6 Xposition Yposition Zposition Zrotation Xrotation Yrotation
    JOINT Spine
    {
        OFFSET -0.000000 0.074571 0.000000
        CHANNELS 3 Zrotation Xrotation Yrotation
        JOINT Spine1
        {
            OFFSET -0.000000 0.214059 0.000000
            CHANNELS 3 Zrotation Xrotation Yrotation
            JOINT Neck
            {
                OFFSET -0.000000 0.232247 0.000000
                CHANNELS 3 Zrotation Xrotation Yrotation
                JOINT Head
                {
                    OFFSET -0.000000 0.140958 0.018188
                    CHANNELS 3 Zrotation Xrotation Yrotation
                    End Site
                    {
                        OFFSET -0.000000 0.181881 0.000000
                    }
                }
            }
            JOINT LeftShoulder
            {
                OFFSET 0.036682 0.194670 -0.002663
                CHANNELS 3 Zrotation Xrotation Yrotation
                JOINT LeftArm
                {
                    OFFSET 0.114069 0.000000 0.000000
                    CHANNELS 3 Zrotation Xrotation Yrotation
                    JOINT LeftForeArm
                    {
                        OFFSET 0.274980 0.000000 0.000000
                        CHANNELS 3 Zrotation Xrotation Yrotation
                        JOINT LeftHand
                        {
                            OFFSET 0.229518 0.000000 0.000000
                            CHANNELS 3 Zrotation Xrotation Yrotation
                            End Site
                            {
                                OFFSET 0.136411 0.000000 0.000000
                            }
                        }
                    }
                }
            }
            JOINT RightShoulder
            {
                OFFSET -0.036012 0.194670 -0.002663
                CHANNELS 3 Zrotation Xrotation Yrotation
                JOINT RightArm
                {
                    OFFSET -0.114069 0.000000 0.000000
                    CHANNELS 3 Zrotation Xrotation Yrotation
                    JOINT RightForeArm
                    {
                        OFFSET -0.274980 0.000000 0.000000
                        CHANNELS 3 Zrotation Xrotation Yrotation
                        JOINT RightHand
                        {
                            OFFSET -0.229518 0.000000 0.000000
                            CHANNELS 3 Zrotation Xrotation Yrotation
                            End Site
                            {
                                OFFSET -0.136411 0.000000 0.000000
                            }
                        }
                    }
                }
            }
        }
    }
    JOINT LeftUpLeg
    {
        OFFSET 0.090941 0.000000 0.000000
        CHANNELS 3 Zrotation Xrotation Yrotation
        JOINT LeftLeg
        {
            OFFSET -0.000000 -0.449808 0.000000
            CHANNELS 3 Zrotation Xrotation Yrotation
            JOINT LeftFoot
            {
                OFFSET -0.000000 -0.372940 0.000000
                CHANNELS 3 Zrotation Xrotation Yrotation
                JOINT LeftToeBase
                {
                    OFFSET -0.000000 -0.059111 0.136411
                    CHANNELS 3 Zrotation Xrotation Yrotation
                    End Site
                    {
                        OFFSET -0.000000 0.000000 0.036376
                    }
                }
            }
        }
    }
    JOINT RightUpLeg
    {
        OFFSET -0.090941 0.000000 0.000000
        CHANNELS 3 Zrotation Xrotation Yrotation
        JOINT RightLeg
        {
            OFFSET -0.000000 -0.449808 0.000000
            CHANNELS 3 Zrotation Xrotation Yrotation
            JOINT RightFoot
            {
                OFFSET -0.000000 -0.372940 0.000000
                CHANNELS 3 Zrotation Xrotation Yrotation
                JOINT RightToeBase
                {
                    OFFSET -0.000000 -0.059111 0.136411
                    CHANNELS 3 Zrotation Xrotation Yrotation
                    End Site
                    {
                        OFFSET -0.000000 0.000000 0.036376
                    }
                }
            }
        }
    }
}
MOTION
Frames:    8
Frame Time:    0.010000
0.414748    0.844561    0.117757    2.396851    -3.054838    -130.338989    -0.313908    -10.957990    1.152638    1.276347    7.321507    0.309100    0.756765    -3.690867    8.483767    -2.558911    -3.538492    9.090665    -3.169090    -15.875175    -12.794966    -59.347736    37.957561    -1.272438    22.524607    -36.174397    -119.751274    17.018143    -0.847997    -19.775412    -6.051110    -7.570006    2.868175    65.283768    54.682457    10.939605    -36.591652    -42.713097    104.969444    -25.446543    1.505424    17.400892    4.761137    -8.290975    4.439281    -3.475343    8.247849    -1.511549    4.975234    -21.764923    25.589603    0.000000    0.000000    0.000000    -1.850230    3.378641    -10.065704    -1.919353    13.112419    -4.105947    8.440988    -30.455847    -1.695779    0.000000    0.000000    0.000000    
0.414693    0.844605    0.117331    2.368892    -3.005309    -130.354767    -0.286069    -10.932516    1.161961    1.275751    7.335379    0.311108    0.733781    -3.662394    8.484080    -2.530365    -3.563750    9.085554    -3.282276    -15.997129    -12.878284    -59.410896    38.019783    -1.071832    22.517014    -36.250759    -119.779655    16.947655    -0.922994    -19.794760    -6.048049    -7.546676    2.857843    65.234268    54.651752    10.994639    -36.613190    -42.701439    104.971565    -25.420523    1.565438    17.403053    4.805876    -8.156512    4.454473    -3.507187    8.109580    -1.516233    5.113939    -21.723907    25.624701    0.000000    0.000000    0.000000    -1.799378    3.453008    -10.042949    -1.932235    13.099106    -4.186143    8.478293    -30.392845    -1.643009    0.000000    0.000000    0.000000    
0.414641    0.844611    0.116976    2.350055    -3.002071    -130.360397    -0.271362    -10.936496    1.163526    1.235179    7.331920    0.313819    0.756542    -3.647296    8.483827    -2.510857    -3.552867    9.086038    -3.192868    -15.846630    -12.780522    -59.308369    37.973831    -1.329986    22.485407    -36.197067    -119.764183    16.928633    -0.929349    -19.783417    -6.018781    -7.556179    2.863024    65.237869    54.627995    10.996619    -36.605438    -42.694412    104.974594    -25.348509    1.604103    17.281240    4.805651    -8.071578    4.457997    -3.504598    8.005396    -1.516186    5.172578    -21.640312    25.670195    0.000000    0.000000    0.000000    -1.791405    3.490175    -10.029457    -1.933825    13.095178    -4.183594    8.426726    -30.406029    -1.667348    0.000000    0.000000    0.000000    
0.414662    0.844624    0.116675    2.346721    -3.017346    -130.356812    -0.261605    -10.963412    1.160710    1.208963    7.340406    0.314210    0.781168    -3.652024    8.486670    -2.526531    -3.526247    9.093501    -3.290584    -15.982123    -12.871147    -59.383400    38.039246    -1.121154    22.560879    -36.292427    -119.728157    16.930794    -0.916457    -19.715746    -6.003857    -7.521028    2.861450    65.192955    54.656075    11.044580    -36.682335    -42.742485    104.915016    -25.283089    1.607082    17.338192    4.819876    -8.018062    4.436289    -3.543413    7.895605    -1.585412    5.210594    -21.589445    25.767252    0.000000    0.000000    0.000000    -1.787684    3.494298    -10.026040    -1.937515    13.100533    -4.197045    8.461076    -30.415634    -1.638574    0.000000    0.000000    0.000000    
0.414681    0.844568    0.116361    2.340732    -3.024190    -130.354935    -0.255695    -10.978878    1.156723    1.203598    7.330982    0.313160    0.773401    -3.622391    8.487755    -2.539965    -3.530631    9.095271    -3.215740    -15.888382    -12.800668    -59.354206    37.931499    -1.297810    22.528997    -36.165325    -119.712189    17.016926    -0.864449    -19.789297    -6.005892    -7.553447    2.872784    65.270844    54.705391    10.974162    -36.759888    -42.800072    104.846565    -25.265121    1.592475    17.344385    4.829757    -7.962049    4.438035    -3.545213    7.797939    -1.599484    5.107666    -21.613310    25.716408    0.000000    0.000000    0.000000    -1.783349    3.504740    -10.035987    -1.937088    13.112118    -4.124984    8.446160    -30.432718    -1.693839    0.000000    0.000000    0.000000    
0.414708    0.844544    0.116020    2.309445    -3.033372    -130.344955    -0.264284    -10.979836    1.140762    1.192820    7.337108    0.308720    0.765002    -3.618388    8.496885    -2.595704    -3.534827    9.109188    -3.081329    -16.371809    -12.749858    -59.937145    38.075100    -0.784526    22.433903    -35.985268    -119.742889    17.124483    -0.836687    -19.856047    -6.013729    -7.574592    2.841486    65.262993    54.745373    11.010576    -36.745628    -42.792820    104.866226    -25.288752    1.597433    17.333158    4.831620    -7.895767    4.427029    -3.574359    7.733184    -1.680181    5.220852    -21.529921    25.833626    0.000000    0.000000    0.000000    -1.795973    3.514145    -10.113420    -1.959047    13.169083    -3.953807    8.362521    -30.504881    -1.789321    0.000000    0.000000    0.000000    
0.414792    0.844526    0.115743    2.306803    -3.065444    -130.337051    -0.269802    -11.012144    1.131033    1.187119    7.347171    0.306015    0.712582    -3.634314    8.492476    -2.540097    -3.538559    9.093759    -3.059744    -16.449631    -12.735699    -60.038250    38.121136    -0.714149    22.432100    -35.976479    -119.738297    17.227152    -0.855752    -19.881117    -6.046234    -7.562864    2.836840    65.292046    54.775543    11.033891    -36.758904    -42.829792    104.861122    -25.269274    1.564431    17.348242    4.798316    -7.852338    4.500972    -3.517297    7.603263    -1.592235    5.078386    -21.483263    25.640497    0.000000    0.000000    0.000000    -1.805960    3.480748    -10.124438    -1.969715    13.221309    -3.898667    8.345905    -30.516903    -1.825051    0.000000    0.000000    0.000000    
0.414880    0.844516    0.115400    2.278741    -3.054687    -130.323105    -0.271596    -11.005745    1.125803    1.197281    7.364573    0.303546    0.678831    -3.627738    8.490006    -2.541277    -3.566457    9.087359    -3.162200    -16.592678    -12.835217    -60.138088    38.140369    -0.500927    22.423090    -35.999329    -119.765587    17.257496    -0.885961    -19.896975    -6.088176    -7.609689    2.812074    65.380455    54.789536    10.979054    -36.759491    -42.827358    104.874275    -25.260023    1.586625    17.341326    4.809746    -7.772637    4.495140    -3.532012    7.506709    -1.576278    5.066197    -21.446085    25.620712    0.000000    0.000000    0.000000    -1.790089    3.501110    -10.108873    -1.987431    13.267200    -3.900952    8.366345    -30.562235    -1.809513    0.000000    0.000000    0.000000    
